<mxfile host="app.diagrams.net" modified="2024-04-08T07:19:07.529Z" agent="Mozilla/5.0 (Windows NT 10.0; Win64; x64) AppleWebKit/537.36 (KHTML, like Gecko) Chrome/123.0.0.0 Safari/537.36" version="24.2.1" etag="Fzgve8gso3Q-a0bo48Lu" type="github">
  <diagram name="Страница — 1" id="Mr9srXh7-GfqGZqTZkpS">
    <mxGraphModel>
      <root>
        <mxCell id="0" />
        <mxCell id="1" parent="0" />
      </root>
    </mxGraphModel>
  </diagram>
</mxfile>
